<?xml version="1.0" encoding="utf-8"?>
<!-- Generator: Adobe Illustrator 26.0.1, SVG Export Plug-In . SVG Version: 6.00 Build 0)  -->
<svg version="1.1" id="Layer_1"
	xmlns="http://www.w3.org/2000/svg"
	xmlns:xlink="http://www.w3.org/1999/xlink" x="0px" y="0px" viewBox="0 0 449.4 486.23" style="enable-background:new 0 0 449.4 486.23;" xml:space="preserve">
	<style type="text/css">
	.st0{fill:#757575;}
	.st1{fill:#2AB6F5;}
	.st2{fill:#44C4FF;}
	.st3{fill:#02589B;}
	</style>
	<g>
		<g>
			<polygon class="st1" points="285.74,371.41 285.74,371.41 285.74,371.41 317.65,429.12 317.65,429.12 317.65,429.12 		"/>
			<path class="st2" d="M411.73,100.44c1.45,2.18,2.86,4.38,4.23,6.61C414.59,104.82,413.18,102.62,411.73,100.44
			c-5.91-8.91-12.45-17.39-19.6-25.39C364.91,44.44,329,20.93,286.84,8.79C167.8-25.48,43.07,43.48,8.79,162.53
			c-34.27,119.04,34.68,243.8,153.73,278.07c42.42,12.21,85.57,11.32,125.08-0.28l-29.61-53.56l-3.29-5.94l-0.02-0.01
			c-23.84,4.64-49.09,3.85-73.99-3.32C96.45,353.23,47.65,264.94,71.91,180.7C96.16,96.45,184.43,47.65,268.67,71.91
			c24.66,7.1,46.3,19.69,63.95,36.04c7.97,7.41,15.14,15.57,21.42,24.38l0,0L411.73,100.44z"/>
			<path class="st1" d="M423.62,120.54c0.21,0.41,0.45,0.81,0.66,1.22C424.07,121.35,423.84,120.95,423.62,120.54z"/>
			<path class="st1" d="M386.5,189.43l53.27-29.45c-3.98-13.17-9.15-25.93-15.43-38.11c6.28,12.18,11.45,24.94,15.43,38.11
			L386.5,189.43z"/>
			<path class="st3" d="M396.14,369.87c19.96-23.5,35.38-51.51,44.45-83.03c9.14-31.75,10.95-63.9,6.41-94.64l-63.35,35.02
			c-0.21,13.73-2.21,27.64-6.18,41.44c-3.9,13.56-9.47,26.19-16.41,37.77c-6.03,10.05-13.07,19.28-20.98,27.59l32.84,59.39l0,0
			C381.22,386.2,388.97,378.32,396.14,369.87z"/>
			<path class="st1" d="M424.28,121.76c0.02,0.04,0.04,0.08,0.06,0.11C424.32,121.83,424.3,121.79,424.28,121.76z"/>
			<path class="st3" d="M340.1,334.03l-50.37-91.1l90.7-50.14l6.07-3.36l-6.07,3.36c-4.51-21.83-13.54-42.43-26.38-60.46
			c0,0,0-0.01-0.01-0.01l-153.57,84.93l85.27,154.16C306.15,362.91,324.72,350.2,340.1,334.03
			C340.1,334.03,340.1,334.03,340.1,334.03z"/>
			<path class="st3" d="M317.65,429.12l31.57,57.11h75.03l-51.32-92.8c0,0,0,0,0,0C356.32,407.99,337.67,420.01,317.65,429.12z"/>
			<path class="st1" d="M415.96,107.05c2.71,4.4,5.26,8.91,7.67,13.49C421.22,115.96,418.67,111.45,415.96,107.05z"/>
			<path class="st1" d="M340.1,334.03C340.1,334.03,340.1,334.03,340.1,334.03c-15.38,16.17-33.95,28.87-54.36,37.37l0,0l31.91,57.71
			l0,0c20.01-9.11,38.67-21.13,55.28-35.69c0,0,0,0,0,0l0,0L340.1,334.03z"/>
			<path class="st1" d="M380.43,192.79l6.07-3.36l53.26-29.46c-3.98-13.17-9.15-25.93-15.43-38.11c-0.02-0.04-0.04-0.08-0.06-0.11
			c-0.21-0.41-0.44-0.81-0.66-1.22c-2.4-4.58-4.95-9.09-7.67-13.49c-1.37-2.23-2.78-4.43-4.23-6.61l-57.68,31.89l0,0
			c0,0,0,0.01,0.01,0.01C366.89,150.36,375.92,170.97,380.43,192.79z"/>
		</g>
	</g>
</svg>
